<svg width="15000" height="15000" viewBox="0 0 15000 15000" fill="none" xmlns="http://www.w3.org/2000/svg">
<circle cx="7500" cy="7500" r="7500" fill="white"/>
<path d="M4097.46 4452.5C3953.85 4560.2 3846.15 4694.83 3846.15 4757.66C3846.15 4946.15 4133.36 5143.61 4546.23 5251.31C4752.67 5314.14 4923.2 5385.95 4923.2 5430.82C4923.2 5475.7 4743.69 5574.43 4519.31 5664.19C4294.92 5744.97 4016.68 5933.45 3917.95 6077.06C3666.64 6418.13 3567.91 6409.15 3352.5 5996.28C3137.08 5592.38 2849.87 5520.58 2643.43 5816.77C2410.07 6148.86 2463.92 6561.73 2787.04 6920.75C3047.33 7216.94 3074.26 7306.7 3101.18 7979.86C3119.13 8383.76 3128.11 8823.56 3128.11 8949.21C3128.11 9317.21 3325.57 9415.94 3989.75 9397.99C4312.87 9389.01 4878.33 9442.86 5255.3 9532.62C6000.26 9694.18 6538.79 9658.28 7059.37 9415.94C7229.9 9335.16 7454.29 9272.33 7535.07 9272.33C7624.82 9281.31 8109.5 9550.57 8612.13 9873.69C9698.16 10573.8 10595.7 10843 11224 10654.6C11690.7 10510.9 12202.3 9981.39 12399.8 9433.89C12615.2 8832.53 12480.6 8733.8 12022.8 9146.67C11385.6 9721.1 11250.9 9774.96 10730.3 9712.13C10129 9631.35 9653.28 9406.96 9123.73 8967.16L8710.86 8608.14L8926.27 8392.73C9069.88 8249.13 9168.61 7997.81 9240.41 7638.79C9366.07 6929.73 9473.77 6777.15 10272.6 6229.64C10838 5834.72 10936.8 5718.04 10918.8 5538.53C10891.9 5332.09 10802.1 5296.19 9725.09 5017.95C8396.72 4685.86 8010.77 4667.91 7032.44 4865.37C6233.62 5026.93 6009.24 4991.03 5470.71 4614.06C4959.11 4246.06 4429.55 4183.23 4097.46 4452.5ZM5228.37 4856.39C5937.43 5341.07 6179.77 5412.87 6673.42 5278.24C7597.9 5035.9 8468.52 5044.88 9581.48 5323.12L10595.7 5574.43L9958.45 6014.23C9285.29 6480.96 8962.17 6884.85 8962.17 7243.87C8962.17 7719.57 8773.69 8132.44 8504.42 8267.08C8360.81 8347.86 8199.26 8383.76 8154.38 8356.83C8100.52 8329.9 8064.62 8338.88 8064.62 8392.73C8064.62 8581.22 9545.58 9748.03 9949.47 9873.69C10658.5 10107 11161.2 10143 11475.3 9981.39C11726.6 9855.74 11753.5 9855.74 11645.8 9981.39C11116.3 10627.6 10084.1 10448.1 8567.25 9451.84C8010.77 9092.82 7759.46 8976.14 7373.51 8940.24C7014.49 8895.36 6906.79 8913.31 6933.71 8994.09C6987.57 9137.7 6529.82 9299.26 6081.04 9299.26C5892.56 9299.26 5470.71 9236.43 5129.64 9155.65C4752.67 9065.89 4321.85 9029.99 4007.71 9056.92C3523.03 9101.8 3487.13 9092.82 3487.13 8913.31C3487.13 8805.61 3460.2 8437.61 3424.3 8096.54C3379.42 7602.89 3388.4 7495.18 3478.15 7549.04C3702.54 7683.67 3478.15 7198.99 3164.01 6875.88C2939.62 6642.51 2858.84 6471.98 2858.84 6256.57C2858.84 5996.28 2876.79 5969.35 2993.48 6068.08C3065.28 6130.91 3128.11 6220.67 3128.11 6274.52C3128.11 6445.05 3424.3 6696.37 3630.74 6696.37C3747.42 6696.37 3917.95 6588.66 4025.66 6454.03C4133.36 6319.4 4447.5 6086.03 4725.74 5933.45C5003.98 5789.84 5246.32 5592.38 5264.27 5511.6C5309.15 5269.27 4887.3 4901.27 4573.16 4901.27C4303.9 4901.27 4160.29 4802.54 4267.99 4685.86C4402.63 4560.2 4923.2 4649.96 5228.37 4856.39Z" fill="#0E1726"/>
<path d="M5345.05 5951.4C5264.27 6041.15 5039.89 6166.81 4851.4 6247.59C4429.55 6409.15 3864.1 7019.48 3998.73 7154.11C4070.53 7225.92 4205.17 7154.11 4438.53 6938.7C4635.99 6768.17 4932.18 6570.71 5102.71 6498.9C5479.68 6337.35 5731 6112.96 5731 5924.47C5731 5753.94 5533.54 5762.92 5345.05 5951.4Z" fill="#0E1726"/>
<path d="M6359.28 6696.37C6359.28 6768.17 6404.16 6893.83 6449.04 6965.64C6529.82 7082.32 6538.79 7082.32 6538.79 6965.64C6538.79 6893.83 6493.91 6768.17 6449.04 6696.37C6368.26 6579.69 6359.28 6579.69 6359.28 6696.37Z" fill="#0E1726"/>
<path d="M6852.93 7504.16C6942.69 7602.89 7032.44 7665.72 7059.37 7638.79C7122.2 7584.94 6897.81 7324.65 6781.13 7324.65C6736.25 7324.65 6763.18 7405.43 6852.93 7504.16Z" fill="#0E1726"/>
<path d="M3935.9 7908.05C3998.73 7979.86 4088.48 8042.68 4133.36 8042.68C4187.22 8042.68 4178.24 7979.86 4115.41 7908.05C4052.58 7836.25 3962.83 7773.42 3917.95 7773.42C3864.1 7773.42 3873.07 7836.25 3935.9 7908.05Z" fill="#0E1726"/>
<path d="M7463.27 8015.76C7544.05 8096.54 7642.78 8132.45 7678.68 8096.54C7714.58 8060.64 7687.65 7997.81 7615.85 7952.94C7391.46 7809.33 7301.71 7854.21 7463.27 8015.76Z" fill="#0E1726"/>
<path d="M4689.84 8356.83C4788.57 8428.63 4887.3 8464.54 4914.23 8437.61C4968.08 8383.76 4743.69 8222.2 4609.06 8222.2C4564.19 8231.17 4600.09 8285.03 4689.84 8356.83Z" fill="#0E1726"/>
<path d="M5282.22 8572.24C5282.22 8617.12 5363 8670.97 5461.73 8697.9C5677.15 8751.75 5704.07 8626.09 5497.64 8545.31C5309.15 8473.51 5282.22 8473.51 5282.22 8572.24Z" fill="#0E1726"/>
<path d="M6134.89 8850.48C6161.82 8895.36 6251.58 8940.23 6323.38 8940.23C6395.18 8940.23 6449.04 8895.36 6449.04 8850.48C6449.04 8796.62 6368.26 8760.72 6260.55 8760.72C6161.82 8760.72 6107.97 8796.62 6134.89 8850.48Z" fill="#0E1726"/>
</svg>
