<svg width="10000" height="6427" viewBox="0 0 10000 6427" fill="none" xmlns="http://www.w3.org/2000/svg">
<path d="M1597.46 165.582C1453.85 273.288 1346.15 407.92 1346.15 470.748C1346.15 659.233 1633.36 856.694 2046.23 964.399C2252.67 1027.23 2423.2 1099.03 2423.2 1143.91C2423.2 1188.79 2243.7 1287.52 2019.31 1377.27C1794.92 1458.05 1516.68 1646.54 1417.95 1790.14C1166.64 2131.21 1067.91 2122.24 852.495 1709.36C637.084 1305.47 349.868 1233.66 143.432 1529.85C-89.9301 1861.95 -36.0773 2274.82 287.04 2633.84C547.329 2930.03 574.255 3019.78 601.182 3692.95C619.133 4096.84 628.108 4536.64 628.108 4662.3C628.108 5030.29 825.569 5129.02 1489.75 5111.07C1812.87 5102.1 2378.33 5155.95 2755.3 5245.7C3500.26 5407.26 4038.79 5371.36 4559.37 5129.02C4729.9 5048.24 4954.29 4985.42 5035.07 4985.42C5124.82 4994.39 5609.5 5263.66 6112.13 5586.77C7198.16 6286.86 8095.71 6556.12 8723.99 6367.64C9190.72 6224.03 9702.32 5694.48 9899.78 5146.97C10115.2 4545.62 9980.56 4446.89 9522.81 4859.76C8885.55 5434.19 8750.92 5488.04 8230.34 5425.21C7628.98 5344.43 7153.28 5120.05 6623.73 4680.25L6210.86 4321.23L6426.27 4105.82C6569.88 3962.21 6668.61 3710.9 6740.41 3351.88C6866.07 2642.81 6973.77 2490.23 7772.59 1942.73C8338.05 1547.81 8436.78 1431.12 8418.83 1251.61C8391.9 1045.18 8302.14 1009.28 7225.09 731.037C5896.72 398.944 5510.77 380.993 4532.44 578.454C3733.62 740.013 3509.24 704.111 2970.71 327.141C2459.11 -40.8545 1929.55 -103.683 1597.46 165.582ZM2728.37 569.479C3437.43 1054.15 3679.77 1125.96 4173.42 991.326C5097.9 748.988 5968.52 757.963 7081.48 1036.2L8095.71 1287.52L7458.45 1727.32C6785.29 2194.04 6462.17 2597.94 6462.17 2956.96C6462.17 3432.66 6273.69 3845.53 6004.42 3980.16C5860.81 4060.94 5699.26 4096.84 5654.38 4069.92C5600.52 4042.99 5564.62 4051.97 5564.62 4105.82C5564.62 4294.3 7045.58 5461.12 7449.47 5586.77C8158.54 5820.13 8661.16 5856.04 8975.31 5694.48C9226.62 5568.82 9253.55 5568.82 9145.84 5694.48C8616.29 6340.71 7584.11 6161.2 6067.25 5164.92C5510.77 4805.91 5259.46 4689.22 4873.51 4653.32C4514.49 4608.44 4406.79 4626.4 4433.71 4707.18C4487.57 4850.78 4029.82 5012.34 3581.04 5012.34C3392.56 5012.34 2970.71 4949.51 2629.64 4868.73C2252.67 4778.98 1821.85 4743.08 1507.71 4770C1023.03 4814.88 987.128 4805.91 987.128 4626.4C987.128 4518.69 960.201 4150.7 924.299 3809.63C879.422 3315.98 888.397 3208.27 978.152 3262.12C1202.54 3396.75 978.152 2912.08 664.01 2588.96C439.623 2355.6 358.844 2185.06 358.844 1969.65C358.844 1709.36 376.795 1682.44 493.476 1781.17C565.28 1844 628.108 1933.75 628.108 1987.6C628.108 2158.14 924.299 2409.45 1130.74 2409.45C1247.42 2409.45 1417.95 2301.75 1525.66 2167.11C1633.36 2032.48 1947.5 1799.12 2225.74 1646.54C2503.98 1502.93 2746.32 1305.47 2764.27 1224.69C2809.15 982.351 2387.3 614.356 2073.16 614.356C1803.9 614.356 1660.29 515.625 1767.99 398.944C1902.63 273.288 2423.2 363.042 2728.37 569.479Z" fill="black"/>
<path d="M2845.05 1664.48C2764.27 1754.24 2539.89 1879.9 2351.4 1960.68C1929.55 2122.23 1364.1 2732.57 1498.73 2867.2C1570.53 2939 1705.17 2867.2 1938.53 2651.79C2135.99 2481.25 2432.18 2283.79 2602.71 2211.99C2979.68 2050.43 3231 1826.04 3231 1637.56C3231 1467.02 3033.54 1476 2845.05 1664.48Z" fill="black"/>
<path d="M3859.28 2409.46C3859.28 2481.26 3904.16 2606.92 3949.04 2678.72C4029.82 2795.4 4038.79 2795.4 4038.79 2678.72C4038.79 2606.92 3993.91 2481.26 3949.04 2409.46C3868.26 2292.78 3859.28 2292.78 3859.28 2409.46Z" fill="black"/>
<path d="M4352.93 3217.24C4442.69 3315.97 4532.44 3378.8 4559.37 3351.88C4622.2 3298.02 4397.81 3037.73 4281.13 3037.73C4236.25 3037.73 4263.18 3118.51 4352.93 3217.24Z" fill="black"/>
<path d="M1435.9 3621.14C1498.73 3692.94 1588.48 3755.77 1633.36 3755.77C1687.22 3755.77 1678.24 3692.94 1615.41 3621.14C1552.58 3549.33 1462.83 3486.51 1417.95 3486.51C1364.1 3486.51 1373.07 3549.33 1435.9 3621.14Z" fill="black"/>
<path d="M4963.27 3728.85C5044.05 3809.63 5142.78 3845.53 5178.68 3809.63C5214.58 3773.73 5187.65 3710.9 5115.85 3666.02C4891.46 3522.41 4801.71 3567.29 4963.27 3728.85Z" fill="black"/>
<path d="M2189.84 4069.91C2288.57 4141.72 2387.3 4177.62 2414.23 4150.69C2468.08 4096.84 2243.69 3935.28 2109.06 3935.28C2064.19 3944.26 2100.09 3998.11 2189.84 4069.91Z" fill="black"/>
<path d="M2782.22 4285.33C2782.22 4330.2 2863 4384.06 2961.73 4410.98C3177.15 4464.84 3204.07 4339.18 2997.64 4258.4C2809.15 4186.6 2782.22 4186.6 2782.22 4285.33Z" fill="black"/>
<path d="M3634.89 4563.56C3661.82 4608.44 3751.58 4653.32 3823.38 4653.32C3895.18 4653.32 3949.04 4608.44 3949.04 4563.56C3949.04 4509.71 3868.26 4473.81 3760.55 4473.81C3661.82 4473.81 3607.97 4509.71 3634.89 4563.56Z" fill="black"/>
</svg>
